<svg xmlns="http://www.w3.org/2000/svg" viewBox="0 0 773.39 580.5"><g id="Ebene_2" data-name="Ebene 2"><g id="Ebene_1-2" data-name="Ebene 1"><path d="M91.8,70.5q24.6,0,39.75,15.3T146.7,126v95.4H117.3V131.1q0-15.9-8.85-25.5T84.6,96q-18,0-29.25,12.75T44.1,142.2v79.2H14.7V.9L44.4,0V96Q60.3,70.5,91.8,70.5Z"/><path d="M303.9,175.5l22.2,9.6q-6.3,17.7-23.85,28.5T262.2,224.4q-33.91,0-54.6-21.6t-20.7-56.7q0-34.2,19.5-54.9t51.3-20.7q29.39,0,47.4,18.15t18,48.15q0,11.7-1.5,17.7h-105q1.49,20.4,14,32.55T262.2,199.2a50.26,50.26,0,0,0,25.35-6.6Q299.09,186,303.9,175.5ZM257.7,95.7q-16.51,0-27.45,10.2T216.9,133.2h76.8v-.6q0-16.8-9.9-26.85T257.7,95.7Z"/><path d="M366.59,221.4V.9l29.7-.9V221.4Z"/><path d="M442.49,221.4V.9l29.7-.9V221.4Z"/><path d="M629.39,175.5l22.2,9.6q-6.3,17.7-23.85,28.5t-40,10.8q-33.9,0-54.6-21.6t-20.7-56.7q0-34.2,19.5-54.9t51.3-20.7q29.4,0,47.4,18.15t18,48.15q0,11.7-1.5,17.7h-105q1.5,20.4,13.95,32.55t31.65,12.15A50.2,50.2,0,0,0,613,192.6Q624.59,186,629.39,175.5Zm-46.2-79.8q-16.5,0-27.45,10.2t-13.35,27.3h76.8v-.6q0-16.8-9.9-26.85T583.19,95.7Z"/><path d="M767.09,70.5a32.07,32.07,0,0,1,6.3.6V99.6c-1.8-.6-4.91-.9-9.3-.9q-18.62,0-30.45,12.9t-11.85,34.8v75h-29.7V72.9l23.7-.9,1.8,28.5H720Q735.29,70.5,767.09,70.5Z"/><path d="M90,483q24,0,38.55,12t14.55,31.5q0,24.3-19.5,39.15T72.3,580.5q-32.7,0-52.5-15.75T0,522.9H29.4a29.29,29.29,0,0,0,11.25,23.85Q51.9,555.9,70.5,555.9h3.3q18,0,28.8-7.2t10.8-19.2v-4.2a15.33,15.33,0,0,0-6.9-13q-6.9-5-18-4.95H49.8q-17.4,0-28-8.1A25.78,25.78,0,0,1,11.1,477.6a27.25,27.25,0,0,1,5-16.05A25.38,25.38,0,0,1,29.1,451.8v-2.1q-18.3-15-18.3-40.8,0-24,17.25-38.7T73.5,355.5h68.4v23.1L114,377.1v1.8q15.6,10.8,15.6,31.2,0,24-16.35,38.55T70.5,463.2A74,74,0,0,1,45.3,459a14.13,14.13,0,0,0-6.6,12.3q0,5.1,4.8,8.4T55.8,483ZM39.3,408v1.8q0,13.5,8.7,21.9t22.5,8.4q13.8,0,22.5-8.4t8.7-21.9V408q0-13.2-8.7-21.3t-22.5-8.1q-13.8,0-22.5,8.1T39.3,408Z"/><path d="M247.8,355.5a32.07,32.07,0,0,1,6.3.6v28.5q-2.7-.9-9.3-.9-18.6,0-30.45,12.9T202.5,431.4v75H172.8V357.9l23.7-.9,1.8,28.5h2.4Q216,355.5,247.8,355.5Z"/><path d="M334.5,355.5q26.1,0,42.3,14.7t16.2,39v97.2H369.3L367.8,480h-2.1a52.68,52.68,0,0,1-19.35,21.6,51.74,51.74,0,0,1-28.05,7.8q-22.8,0-36.6-12.3t-13.8-32.4q0-19.2,14.7-31.65t39-13.35l42-1.2v-9q0-12.9-8.1-21t-21-8.1q-14.1,0-22.65,8T303.3,409.2H275.1v-.3q0-24,16.35-38.7T334.5,355.5ZM323.7,483.9a37.59,37.59,0,0,0,28.35-12.15Q363.6,459.6,363.6,440.1v-1.5l-40.2,1.2q-11.7.3-18.9,6.45t-7.2,14.55v3.9a16.44,16.44,0,0,0,7.2,13.95Q311.7,483.9,323.7,483.9Z"/><path d="M476.1,339.6v18.9h98.1V506.4H544.5V381.6H476.1V506.4H446.7V381.6H420.3V358.5h26.4V339.3q0-26.1,15.75-42.15t41.55-16q9.3,0,14.7,1.8l-.3,25.2a38.27,38.27,0,0,0-10.8-1.2q-14.7,0-23.1,8.85T476.1,339.6Z"/><path d="M621,506.4V283.8l29.4-1.2V506.4Zm74.7-81.6,67.5,81.6H726l-65.1-77.7V426l54.3-67.5h33.9Z"/></g></g></svg>