<?xml version="1.0" standalone="no"?>
<!DOCTYPE svg PUBLIC "-//W3C//DTD SVG 20010904//EN"
 "http://www.w3.org/TR/2001/REC-SVG-20010904/DTD/svg10.dtd">
<svg version="1.0" xmlns="http://www.w3.org/2000/svg"
 width="400.000000pt" height="400.000000pt" viewBox="0 0 400.000000 400.000000"
 preserveAspectRatio="xMidYMid meet">
<metadata>
Created by potrace 1.11, written by Peter Selinger 2001-2013
</metadata>
<g transform="translate(0.000000,400.000000) scale(0.100000,-0.100000)"
fill="#000000" stroke="none">
<path d="M1765 3989 c-452 -57 -861 -256 -1179 -575 -379 -379 -586 -878 -586
-1414 0 -536 207 -1035 586 -1414 472 -473 1143 -678 1799 -550 643 125 1192
568 1451 1169 161 373 205 783 128 1180 -154 794 -785 1425 -1579 1579 -185
36 -447 46 -620 25z m567 -60 c301 -51 585 -173 839 -360 108 -79 319 -290
398 -398 188 -255 307 -535 362 -846 18 -105 22 -167 22 -325 0 -158 -4 -220
-22 -325 -55 -311 -174 -591 -362 -846 -79 -108 -290 -319 -398 -398 -255
-188 -535 -307 -846 -362 -185 -32 -465 -32 -650 0 -311 55 -591 174 -846 362
-108 79 -319 290 -398 398 -188 255 -307 535 -362 846 -18 105 -22 167 -22
325 0 158 4 220 22 325 110 629 504 1155 1077 1436 204 100 442 167 672 189
130 13 373 3 514 -21z"/>
<path d="M912 2198 l3 -773 76 -3 c63 -2 80 0 100 17 l24 19 -3 204 c-7 399
31 541 162 611 61 32 175 31 233 -2 48 -27 86 -79 102 -137 7 -24 11 -165 11
-376 l0 -338 89 0 c69 0 93 4 106 16 14 15 16 57 13 398 l-3 381 -26 56 c-37
79 -91 134 -163 168 -162 77 -301 61 -453 -50 l-68 -49 -3 315 -2 315 -100 0
-100 0 2 -772z"/>
<path d="M2500 2479 c-242 -25 -383 -180 -368 -400 5 -61 13 -87 55 -170 l50
-98 -34 -33 c-90 -86 -95 -206 -12 -289 57 -57 111 -70 329 -75 200 -6 249
-16 291 -60 20 -21 24 -36 24 -83 -1 -75 -28 -118 -97 -156 -45 -25 -67 -30
-144 -33 -147 -7 -247 32 -288 113 -48 93 -78 115 -161 115 -83 0 -89 -6 -81
-71 27 -211 256 -353 541 -336 228 14 392 119 440 281 42 140 -19 297 -137
357 -62 32 -162 49 -288 49 -63 0 -139 3 -169 7 -47 5 -56 10 -82 46 -16 22
-26 44 -23 49 4 6 26 19 49 29 36 16 50 17 103 8 170 -30 360 58 429 199 24
49 28 69 28 142 -1 60 -7 105 -23 154 -32 98 -33 96 43 96 l65 0 0 78 0 79
-97 6 c-125 9 -346 7 -443 -4z m177 -201 c60 -39 86 -100 81 -187 -5 -92 -38
-143 -115 -178 -98 -45 -209 -18 -268 66 -40 57 -48 166 -17 227 40 78 94 105
203 102 63 -3 82 -8 116 -30z"/>
</g>
</svg>
